{
    "asset" : {
        "generator" : "Khronos glTF Blender I/O v1.6.16",
        "version" : "2.0"
    },
    "scene" : 0,
    "scenes" : [
        {
            "name" : "Scene",
            "nodes" : [
                0,
                1,
                2
            ]
        }
    ],
    "nodes" : [
        {
            "name" : "Light",
            "rotation" : [
                0.16907575726509094,
                0.7558803558349609,
                -0.27217137813568115,
                0.570947527885437
            ],
            "translation" : [
                4.076245307922363,
                5.903861999511719,
                -1.0054539442062378
            ]
        },
        {
            "name" : "Camera",
            "rotation" : [
                0.483536034822464,
                0.33687159419059753,
                -0.20870360732078552,
                0.7804827094078064
            ],
            "translation" : [
                7.358891487121582,
                4.958309173583984,
                6.925790786743164
            ]
        },
        {
            "mesh" : 0,
            "name" : "BezierCircle.004",
            "rotation" : [
                0.5464926362037659,
                0.5150763392448425,
                0.42475977540016174,
                0.50559002161026
            ],
            "scale" : [
                0.34762853384017944,
                0.34762850403785706,
                0.34762850403785706
            ],
            "translation" : [
                -1.0064500570297241,
                -0.0748499408364296,
                0.13777785003185272
            ]
        }
    ],
    "materials" : [
        {
            "doubleSided" : true,
            "name" : "Material.001",
            "pbrMetallicRoughness" : {
                "metallicFactor" : 0,
                "roughnessFactor" : 0.5
            }
        }
    ],
    "meshes" : [
        {
            "name" : "BezierCircle.005",
            "primitives" : [
                {
                    "attributes" : {
                        "POSITION" : 0,
                        "NORMAL" : 1,
                        "TEXCOORD_0" : 2
                    },
                    "indices" : 3,
                    "material" : 0
                }
            ]
        }
    ],
    "accessors" : [
        {
            "bufferView" : 0,
            "componentType" : 5126,
            "count" : 4667,
            "max" : [
                6.032259941101074,
                0.4502643346786499,
                7.541929721832275
            ],
            "min" : [
                -3.5921683311462402,
                -0.24991536140441895,
                -1.8163354396820068
            ],
            "type" : "VEC3"
        },
        {
            "bufferView" : 1,
            "componentType" : 5126,
            "count" : 4667,
            "type" : "VEC3"
        },
        {
            "bufferView" : 2,
            "componentType" : 5126,
            "count" : 4667,
            "type" : "VEC2"
        },
        {
            "bufferView" : 3,
            "componentType" : 5123,
            "count" : 25056,
            "type" : "SCALAR"
        }
    ],
    "bufferViews" : [
        {
            "buffer" : 0,
            "byteLength" : 56004,
            "byteOffset" : 0
        },
        {
            "buffer" : 0,
            "byteLength" : 56004,
            "byteOffset" : 56004
        },
        {
            "buffer" : 0,
            "byteLength" : 37336,
            "byteOffset" : 112008
        },
        {
            "buffer" : 0,
            "byteLength" : 50112,
            "byteOffset" : 149344
        }
    ],
    "buffers" : [
        {
            "byteLength" : 199456,
            "uri" : "data:application/octet-stream;base64,"
        }
    ]
}
